# xmcd CD database file
#
# Track frame offsets:
#	150
#	30390
#	53348
#	78718
#	97900
#	118390
#	138433
#	159028
#	177643
#
# Disc length: 2573 seconds
#
# Revision: 0
# Processed by: cddbd v1.5PL3 Copyright (c) Steve Scherf et al.
# Submitted via: CDex 1.50beta8
#
DISCID=6a0a0b09
DTITLE=鈴木博文 - 三文楽士
DYEAR=1900
DGENRE=Rock
TTITLE0=雨の柱
TTITLE1=Talk Beat 1993.6.8
TTITLE2=青いバス、白い靴と鞄
TTITLE3=雷鳴
TTITLE4=ビーナス
TTITLE5=ブルー
TTITLE6=炎の庭
TTITLE7=水の都市
TTITLE8=21世紀の大馬鹿者
EXTD=
EXTT0=
EXTT1=
EXTT2=
EXTT3=
EXTT4=
EXTT5=
EXTT6=
EXTT7=
EXTT8=
PLAYORDER=
